<?xml version="1.0" encoding="utf-8"?>
<!-- Generator: Adobe Illustrator 26.5.0, SVG Export Plug-In . SVG Version: 6.00 Build 0)  -->
<svg version="1.1" id="Layer_1" xmlns="http://www.w3.org/2000/svg" xmlns:xlink="http://www.w3.org/1999/xlink" x="0px" y="0px"
	 width="88" height="30" viewBox="0 0 88 30" style="enable-background:new 0 0 88 30;" xml:space="preserve">
<style type="text/css">
	.st0{fill:#FFFFFF;}
</style>
<g>
	<path class="st0" d="M24,16.4c-0.6-1.2-1.7-2-3.3-2.3c-0.1,0-0.2,0-0.4-0.1l-0.2,0c-0.1,0-0.2,0-0.5,0l-0.1,0l-2.5,0l0-2.5
		c0-0.3,0-0.5,0-0.6l0-0.2c0-0.1,0-0.3-0.1-0.4c-0.3-1.5-1.1-2.6-2.3-3.3c-0.9-0.5-1.8-0.5-1.8-0.5l-0.1,0c-0.2,0-0.4,0-0.6,0
		C8,7.1,8,11,8,11.2l0,7.2c0,1.5,0.4,2.6,1.2,3.4c0.8,0.8,2,1.2,3.4,1.2l7.3,0c0.4,0,4.1-0.1,4.6-4c0-0.2,0-0.5,0-0.8
		C24.5,18.2,24.5,17.4,24,16.4z"/>
	<g>
		<path class="st0" d="M79.6,7.6h2.1c0.3,0,0.5,0.2,0.5,0.5v3.6H86c0.3,0,0.5,0.2,0.5,0.5v1.5c0,0.3-0.2,0.5-0.5,0.5h-3.8v5.2
			c0,3.1,1.1,4.2,4.1,4.3c0.3,0,0.5,0.2,0.5,0.5v1.7c0,0.3-0.2,0.5-0.5,0.5c-5.3-0.1-7.2-2.4-7.2-6.8V8.1
			C79.1,7.8,79.3,7.6,79.6,7.6z"/>
		<path class="st0" d="M32.6,19c0-5,2.2-7.6,7.4-7.6c5.1,0,7.3,2.6,7.3,7.6c0,5.1-2.2,7.5-7.3,7.5C34.8,26.5,32.6,24,32.6,19z
			 M35.8,19c0,3.6,1.3,4.9,4.1,4.9c2.8,0,4-1.3,4-4.9c0-3.6-1.3-5.1-4-5.1C37.1,13.9,35.8,15.4,35.8,19z"/>
		<path class="st0" d="M49.3,19c0-5,2.2-7.6,7.4-7.6c5.1,0,7.3,2.6,7.3,7.6c0,5.1-2.2,7.5-7.3,7.5C51.5,26.5,49.3,24,49.3,19z
			 M52.5,19c0,3.6,1.3,4.9,4.1,4.9c2.8,0,4-1.3,4-4.9c0-3.6-1.3-5.1-4-5.1C53.8,13.9,52.5,15.4,52.5,19z"/>
		<path class="st0" d="M70.7,19.9c-3-0.5-4.7-1.5-4.7-4.3c0-2.6,1.8-4.2,5.7-4.2c1.8,0,3.6,0.4,4.6,0.7c0.2,0.1,0.3,0.3,0.3,0.5
			l0,1.6c0,0.4-0.4,0.6-0.7,0.5c-1.3-0.5-2.6-0.8-4.2-0.8c-1.9,0-3,0.5-3,1.6c0,1.2,1.4,1.7,3.7,2.1c2.9,0.5,4.5,1.4,4.5,4.3
			c0,2.9-1.6,4.6-6,4.6c-2,0-3.9-0.4-5.1-1c-0.2-0.1-0.3-0.3-0.3-0.5l0-1.6c0-0.4,0.4-0.6,0.7-0.5c1.5,0.6,3.2,0.9,4.6,0.9
			c2.2,0,3.2-0.6,3.2-1.9C74.3,20.8,73.4,20.3,70.7,19.9z"/>
	</g>
	<path class="st0" d="M26.1,0.2H5.6c-2.4,0-4.4,2-4.4,4.4v20.9c0,2.4,2,4.4,4.4,4.4h20.5c2.4,0,4.4-2,4.4-4.4V4.6
		C30.5,2.1,28.6,0.2,26.1,0.2z M26.5,22.5c-1.3,2.4-3.9,3.2-4.6,3.4c-0.4,0.1-0.8,0.2-1.6,0.2l0,0h-8.7c0,0-0.6,0-1.2-0.2
		c-0.4-0.1-1-0.3-1.4-0.5c-0.5-0.2-1.1-0.6-1.9-1.4L7,24c-0.6-0.6-1.3-1.6-1.6-2.3c-0.2-0.4-0.2-0.7-0.3-1.1C4.9,20,5,19.4,5,19.3
		l0-8.6C5,10,5.1,9.6,5.2,9.2c0.2-0.8,1-3.4,3.4-4.6c1.3-0.8,2.7-1.1,4.1-1.1c2.1,0,3.5,0.9,3.6,1c3.8,2.3,3.9,6,3.9,6.5
		c0.5,0,4.3,0.1,6.6,3.9C26.8,14.8,29,18.1,26.5,22.5z"/>
</g>
</svg>
